<svg xmlns="http://www.w3.org/2000/svg" viewBox="0 0 512 512">
  <rect width="512" height="512" fill="#0ea5a4" rx="96"/>
  <circle cx="256" cy="256" r="176" fill="#fff"/>
  <g stroke="#94a3b8" stroke-width="3" stroke-linecap="round">
    <line x1="256" y1="96" x2="256" y2="108"/>
    <line x1="336" y1="110" x2="330" y2="120"/>
    <line x1="402" y1="176" x2="392" y2="182"/>
    <line x1="416" y1="256" x2="404" y2="256"/>
    <line x1="402" y1="336" x2="392" y2="330"/>
    <line x1="336" y1="402" x2="330" y2="392"/>
    <line x1="256" y1="416" x2="256" y2="404"/>
    <line x1="176" y1="402" x2="182" y2="392"/>
    <line x1="110" y1="336" x2="120" y2="330"/>
    <line x1="96" y1="256" x2="108" y2="256"/>
    <line x1="110" y1="176" x2="120" y2="182"/>
    <line x1="176" y1="110" x2="182" y2="120"/>
  </g>
  <g stroke="#0f172a" stroke-width="8" stroke-linecap="round">
    <line x1="256" y1="96" x2="256" y2="120"/>
    <line x1="416" y1="256" x2="392" y2="256"/>
    <line x1="256" y1="416" x2="256" y2="392"/>
    <line x1="96" y1="256" x2="120" y2="256"/>
  </g>
  <line x1="256" y1="256" x2="200" y2="148" stroke="#0f172a" stroke-width="16" stroke-linecap="round"/>
  <line x1="256" y1="256" x2="348" y2="188" stroke="#0f172a" stroke-width="10" stroke-linecap="round"/>
  <circle cx="256" cy="256" r="14" fill="#0ea5a4"/>
</svg>
